<svg width="1000" height="1000" xmlns="http://www.w3.org/2000/svg" fill="none">

 <g>
  <title>Layer 1</title>
  <g id="svg_16">
   <path id="svg_1" fill="black" d="m828.89055,788.38144c0,10.459 1.356,20.82 4.067,31.085c2.711,10.071 6.972,19.174 12.782,27.308c5.811,8.134 13.267,14.719 22.37,19.754c9.102,4.842 19.948,7.263 32.537,7.263c12.588,0 23.434,-2.421 32.537,-7.263c9.102,-5.035 16.559,-11.62 22.369,-19.754c5.81,-8.134 10.071,-17.237 12.782,-27.308c2.712,-10.265 4.068,-20.626 4.068,-31.085c0,-10.458 -1.356,-20.723 -4.068,-30.794c-2.711,-10.264 -6.972,-19.464 -12.782,-27.598c-5.81,-8.134 -13.267,-14.622 -22.369,-19.464c-9.103,-5.036 -19.949,-7.553 -32.537,-7.553c-12.589,0 -23.435,2.517 -32.537,7.553c-9.103,4.842 -16.559,11.33 -22.37,19.464c-5.81,8.134 -10.071,17.334 -12.782,27.598c-2.711,10.071 -4.067,20.336 -4.067,30.794zm-27.599,0c0,-14.138 2.034,-27.695 6.101,-40.671c4.261,-13.17 10.555,-24.79 18.883,-34.861c8.328,-10.071 18.69,-18.109 31.085,-24.112c12.395,-6.004 26.824,-9.006 43.286,-9.006c16.462,0 30.891,3.002 43.286,9.006c12.395,6.003 22.756,14.041 31.084,24.112c8.328,10.071 14.526,21.691 18.593,34.861c4.261,12.976 6.39,26.533 6.39,40.671c0,14.138 -2.129,27.792 -6.39,40.962c-4.067,12.976 -10.265,24.5 -18.593,34.571c-8.328,10.071 -18.689,18.108 -31.084,24.112c-12.395,5.81 -26.824,8.715 -43.286,8.715c-16.462,0 -30.891,-2.905 -43.286,-8.715c-12.395,-6.004 -22.757,-14.041 -31.085,-24.112c-8.328,-10.071 -14.622,-21.595 -18.883,-34.571c-4.067,-13.17 -6.101,-26.824 -6.101,-40.962z"/>
   <path id="svg_2" fill="black" d="m747.60855,684.67044l27.599,0l0,207.424l-27.599,0l0,-207.424z"/>
   <path id="svg_3" fill="black" d="m578.21255,868.85344l45.901,0c3.098,0 6.972,-0.193 11.62,-0.581c4.648,-0.581 9.587,-1.743 14.816,-3.486c5.229,-1.936 10.361,-4.648 15.397,-8.134c5.229,-3.486 9.877,-8.231 13.944,-14.235c4.068,-6.004 7.36,-13.46 9.878,-22.369c2.711,-9.103 4.067,-20.045 4.067,-32.828c0,-12.395 -1.259,-23.434 -3.777,-33.118c-2.324,-9.877 -6.294,-18.205 -11.911,-24.984c-5.422,-6.972 -12.492,-12.201 -21.207,-15.687c-8.715,-3.68 -19.464,-5.52 -32.246,-5.52l-46.482,0l0,160.942zm-27.598,-184.183l71.175,0c31.956,0 56.552,8.134 73.789,24.403c17.237,16.269 25.855,41.059 25.855,74.371c0,17.43 -1.936,32.924 -5.81,46.481c-3.873,13.364 -9.877,24.693 -18.011,33.99c-8.135,9.102 -18.496,16.074 -31.085,20.916c-12.589,4.842 -27.502,7.263 -44.738,7.263l-71.175,0l0,-207.424z"/>
   <path id="svg_4" fill="black" d="m515.26455,817.14344c0,26.533 -7.069,46.481 -21.207,59.845c-14.138,13.169 -34.28,19.754 -60.426,19.754c-26.727,0 -47.644,-6.294 -62.75,-18.883c-14.913,-12.782 -22.369,-33.021 -22.369,-60.716l0,-132.473l27.598,0l0,132.473c0,18.592 4.939,32.73 14.816,42.414c9.877,9.49 24.112,14.235 42.705,14.235c17.624,0 30.988,-4.745 40.09,-14.235c9.297,-9.684 13.945,-23.822 13.945,-42.414l0,-132.473l27.598,0l0,132.473z"/>
   <path id="svg_5" fill="black" d="m238.63555,707.91144l-69.141,0l0,-23.241l165.881,0l0,23.241l-69.141,0l0,184.183l-27.599,0l0,-184.183z"/>
   <path id="svg_6" fill="black" d="m131.89155,745.38644c-1.549,-14.913 -6.972,-25.662 -16.268,-32.247c-9.103,-6.778 -20.8201,-10.167 -35.1519,-10.167c-5.8102,0 -11.5236,0.581 -17.1401,1.743c-5.6165,1.162 -10.652,3.098 -15.1065,5.81c-4.2608,2.711 -7.7469,6.391 -10.4584,11.039c-2.5177,4.455 -3.7766,10.071 -3.7766,16.85c0,6.391 1.8399,11.62 5.5197,15.687c3.8735,3.874 8.909,7.069 15.1065,9.587c6.3912,2.518 13.5571,4.648 21.4977,6.391c7.9406,1.55 15.978,3.293 24.1126,5.229c8.328,1.937 16.462,4.261 24.403,6.973c7.94,2.517 15.009,6.004 21.207,10.458c6.391,4.455 11.426,10.071 15.106,16.85c3.874,6.778 5.81,15.3 5.81,25.564c0,11.04 -2.517,20.53 -7.553,28.47c-4.842,7.747 -11.136,14.138 -18.883,19.174c-7.747,4.842 -16.462,8.328 -26.146,10.458c-9.49,2.324 -18.9798,3.486 -28.4698,3.486c-11.6204,0 -22.6597,-1.452 -33.1181,-4.357c-10.2646,-2.905 -19.3673,-7.263 -27.3079,-13.073c-7.7469,-6.004 -13.9444,-13.557 -18.5926,-22.66c-4.45448,-9.296 -6.68172,-20.239 -6.68172,-32.827l26.14582,0c0,8.715 1.6463,16.268 4.9387,22.659c3.4861,6.198 7.9406,11.33 13.3635,15.397c5.6165,4.067 12.1045,7.069 19.4641,9.006c7.3596,1.937 14.9128,2.905 22.6598,2.905c6.1975,0 12.395,-0.581 18.5922,-1.743c6.392,-1.162 12.105,-3.099 17.14,-5.81c5.036,-2.905 9.103,-6.779 12.202,-11.62c3.099,-4.842 4.648,-11.04 4.648,-18.593c0,-7.166 -1.937,-12.976 -5.81,-17.431c-3.68,-4.454 -8.715,-8.037 -15.107,-10.748c-6.197,-2.906 -13.266,-5.23 -21.2069,-6.973c-7.9406,-1.743 -16.0749,-3.486 -24.4028,-5.229c-8.1343,-1.937 -16.1717,-4.067 -24.1123,-6.391c-7.9406,-2.518 -15.1065,-5.713 -21.4977,-9.587c-6.1976,-4.067 -11.2331,-9.199 -15.1065,-15.397c-3.67981,-6.391 -5.51971,-14.332 -5.51971,-23.822c0,-10.458 2.13041,-19.464 6.39121,-27.017c4.2608,-7.747 9.8773,-14.041 16.8496,-18.883c7.1659,-5.036 15.2033,-8.716 24.1123,-11.04c9.1026,-2.517 18.3989,-3.776 27.8889,-3.776c10.652,0 20.5289,1.259 29.6319,3.776c9.103,2.518 17.043,6.488 23.822,11.911c6.972,5.423 12.395,12.299 16.268,20.626c4.068,8.135 6.295,17.915 6.682,29.342l-26.146,0z"/>
   <path id="svg_7" fill="black" d="m834.18255,393.96344l29.342,0l109.232,168.205l0.581,0l0,-168.205l26.142,0l0,207.424l-30.21,0l-108.36,-166.462l-0.581,0l0,166.462l-26.146,0l0,-207.424z"/>
   <path id="svg_8" fill="black" d="m777.88555,575.53244c-8.134,10.846 -18.205,18.689 -30.213,23.531c-12.008,4.648 -24.112,6.972 -36.314,6.972c-15.494,0 -29.341,-2.808 -41.543,-8.424c-12.201,-5.811 -22.563,-13.557 -31.084,-23.241c-8.522,-9.684 -15.01,-20.82 -19.464,-33.409c-4.455,-12.589 -6.682,-25.661 -6.682,-39.219c0,-15.106 2.033,-29.438 6.101,-42.995c4.26,-13.751 10.458,-25.759 18.592,-36.023c8.328,-10.265 18.593,-18.399 30.794,-24.403c12.395,-6.198 26.824,-9.296 43.286,-9.296c11.233,0 21.788,1.355 31.666,4.067c10.071,2.518 18.98,6.585 26.727,12.201c7.94,5.617 14.525,12.783 19.754,21.498c5.423,8.522 9.103,18.883 11.04,31.084l-27.599,0c-1.356,-7.94 -3.873,-14.719 -7.553,-20.335c-3.68,-5.81 -8.231,-10.555 -13.654,-14.235c-5.423,-3.68 -11.62,-6.391 -18.593,-8.134c-6.778,-1.937 -14.041,-2.906 -21.788,-2.906c-12.589,0 -23.434,2.518 -32.537,7.554c-8.909,5.035 -16.269,11.717 -22.079,20.045c-5.616,8.134 -9.78,17.527 -12.492,28.179c-2.711,10.459 -4.067,21.208 -4.067,32.247c0,10.846 1.55,21.304 4.648,31.375c3.099,9.877 7.651,18.689 13.654,26.436c6.004,7.554 13.364,13.654 22.079,18.302c8.909,4.455 19.174,6.682 30.794,6.682c10.846,0 20.433,-1.743 28.761,-5.229c8.328,-3.486 15.3,-8.231 20.916,-14.235c5.81,-6.198 10.168,-13.363 13.073,-21.498c2.905,-8.328 4.164,-17.237 3.777,-26.727l-66.236,0l0,-23.24l90.929,0l0,109.231l-17.43,0l-7.263,-25.855z"/>
   <path id="svg_9" fill="black" d="m557.45055,393.96344l27.598,0l0,207.424l-27.598,0l0,-207.424z"/>
   <path id="svg_10" fill="black" d="m496.60655,454.68044c-1.55,-14.913 -6.973,-25.662 -16.269,-32.247c-9.103,-6.778 -20.82,-10.168 -35.152,-10.168c-5.81,0 -11.523,0.581 -17.14,1.744c-5.616,1.162 -10.652,3.098 -15.106,5.81c-4.261,2.711 -7.747,6.391 -10.459,11.039c-2.517,4.455 -3.776,10.071 -3.776,16.85c0,6.391 1.84,11.62 5.52,15.687c3.873,3.874 8.908,7.069 15.106,9.587c6.391,2.518 13.557,4.648 21.498,6.391c7.94,1.55 15.978,3.293 24.112,5.229c8.328,1.937 16.462,4.261 24.403,6.973c7.94,2.517 15.01,6.003 21.207,10.458c6.391,4.454 11.427,10.071 15.107,16.849c3.873,6.779 5.81,15.301 5.81,25.565c0,11.04 -2.518,20.53 -7.553,28.47c-4.842,7.747 -11.137,14.138 -18.884,19.174c-7.747,4.842 -16.462,8.328 -26.145,10.458c-9.49,2.324 -18.98,3.486 -28.47,3.486c-11.621,0 -22.66,-1.452 -33.119,-4.357c-10.264,-2.905 -19.367,-7.263 -27.307,-13.073c-7.747,-6.004 -13.945,-13.557 -18.593,-22.66c-4.455,-9.296 -6.682,-20.239 -6.682,-32.828l26.146,0c0,8.716 1.646,16.269 4.939,22.66c3.486,6.198 7.94,11.33 13.363,15.397c5.617,4.067 12.105,7.069 19.464,9.006c7.36,1.937 14.913,2.905 22.66,2.905c6.198,0 12.395,-0.581 18.593,-1.743c6.391,-1.162 12.104,-3.099 17.14,-5.81c5.035,-2.905 9.102,-6.779 12.201,-11.621c3.099,-4.841 4.648,-11.039 4.648,-18.592c0,-7.166 -1.936,-12.976 -5.81,-17.431c-3.68,-4.454 -8.715,-8.037 -15.106,-10.749c-6.198,-2.905 -13.267,-5.229 -21.208,-6.972c-7.94,-1.743 -16.074,-3.486 -24.402,-5.229c-8.135,-1.937 -16.172,-4.067 -24.113,-6.391c-7.94,-2.518 -15.106,-5.714 -21.497,-9.587c-6.198,-4.067 -11.233,-9.199 -15.107,-15.397c-3.68,-6.391 -5.52,-14.332 -5.52,-23.822c0,-10.458 2.131,-19.464 6.392,-27.017c4.26,-7.747 9.877,-14.041 16.849,-18.883c7.166,-5.036 15.204,-8.716 24.113,-11.04c9.102,-2.517 18.398,-3.776 27.888,-3.776c10.652,0 20.53,1.259 29.632,3.776c9.103,2.518 17.044,6.488 23.822,11.911c6.972,5.423 12.395,12.298 16.269,20.626c4.067,8.135 6.294,17.915 6.682,29.342l-26.146,0z"/>
   <path id="svg_11" fill="black" d="m207.74455,393.96344l143.221,0l0,23.241l-115.623,0l0,65.946l107.779,0l0,23.24l-107.779,0l0,71.756l116.494,0l0,23.241l-144.092,0l0,-207.424z"/>
   <path id="svg_12" fill="black" d="m39.50945,578.14644l45.9006,0c3.0987,0 6.9722,-0.193 11.6204,-0.581c4.6481,-0.581 9.5871,-1.743 14.8161,-3.486c5.229,-1.937 10.361,-4.648 15.397,-8.134c5.229,-3.486 9.877,-8.231 13.944,-14.235c4.067,-6.004 7.36,-13.46 9.878,-22.369c2.711,-9.103 4.067,-20.045 4.067,-32.828c0,-12.395 -1.259,-23.434 -3.777,-33.118c-2.324,-9.877 -6.294,-18.205 -11.911,-24.984c-5.423,-6.972 -12.492,-12.201 -21.207,-15.687c-8.715,-3.68 -19.4641,-5.52 -32.2465,-5.52l-46.4816,0l0,160.942zm-27.5984,-184.183l71.1749,0c31.9556,0 56.5526,8.134 73.7896,24.403c17.237,16.269 25.855,41.059 25.855,74.37c0,17.431 -1.937,32.925 -5.81,46.482c-3.873,13.363 -9.877,24.693 -18.012,33.99c-8.134,9.102 -18.495,16.075 -31.084,20.916c-12.589,4.842 -27.502,7.263 -44.7386,7.263l-71.1749,0l0,-207.424z"/>
   <path id="svg_13" fill="black" d="m312.52255,103.25757l37.767,0l65.364,174.30587l65.655,-174.30587l37.767,0l0,207.42387l-26.146,0l0,-172.5627l-0.581,0l-64.784,172.5627l-23.531,0l-64.784,-172.5627l-0.581,0l0,172.5627l-26.146,0l0,-207.42387z"/>
   <path id="svg_14" fill="black" d="m217.98055,225.85244l0,84.829l-27.599,0l0,-84.829l-80.18,-122.59487l32.827,0l62.169,98.77327l60.717,-98.77327l31.375,0l-79.309,122.59487z"/>
   <path id="svg_15" fill="black" d="m11.91105,103.25757l27.5984,0l0,184.18287l109.8131,0l0,23.241l-137.4115,0l0,-207.42387z"/>
  </g>
 </g>
</svg>