<svg width="2263" height="302" xmlns="http://www.w3.org/2000/svg" fill="none">

 <g>
  <title>Layer 1</title>
  <path id="svg_1" fill="black" d="m2035.73,7.40039l45.76,0l144.51,231.75261l0,-231.75261l36.81,0l0,286.08761l-43.43,0l-146.65,-231.5577l0,231.5577l-37,0l0,-286.08761z"/>
  <path id="svg_2" fill="black" d="m1860.93,0c26.87,0 50.11,5.19333 69.72,15.58c28.43,14.9308 45.83,41.0922 52.19,78.4841l-38.36,0c-4.68,-20.9031 -14.35,-36.0936 -29.02,-45.5714c-14.67,-9.6077 -33.17,-14.4115 -55.51,-14.4115c-26.48,0 -48.81,9.9323 -66.99,29.7967c-18.05,19.8645 -27.07,49.4661 -27.07,88.8061c0,34.016 7.46,61.736 22.4,83.158c14.93,21.293 39.27,31.939 73.03,31.939c25.83,0 47.19,-7.465 64.07,-22.396c17.01,-15.061 25.71,-39.34 26.1,-72.837l-89.59,0l0,-32.133l125.61,0l0,153.073l-24.92,0l-9.35,-36.808c-13.11,14.412 -24.73,24.409 -34.86,29.992c-17.01,9.607 -38.63,14.411 -64.85,14.411c-33.89,0 -63.04,-10.971 -87.45,-32.913c-26.61,-27.524 -39.92,-65.306 -39.92,-113.344c0,-47.908 12.98,-86.0144 38.95,-114.318c24.67,-27.0053 56.61,-40.508 95.82,-40.508z"/>
  <path id="svg_3" fill="black" d="m1646.98,7.40039l39.15,0l0,286.08761l-39.15,0l0,-286.08761z"/>
  <path id="svg_4" fill="black" d="m1409.47,201.177c0.91,16.229 4.74,29.407 11.49,39.534c12.86,18.956 35.51,28.434 67.97,28.434c14.54,0 27.79,-2.078 39.73,-6.232c23.11,-8.05 34.67,-22.461 34.67,-43.235c0,-15.58 -4.87,-26.68 -14.61,-33.302c-9.87,-6.492 -25.32,-12.139 -46.35,-16.943l-38.75,-8.764c-25.32,-5.713 -43.24,-12.009 -53.76,-18.891c-18.17,-11.944 -27.26,-29.796 -27.26,-53.5558c0,-25.707 8.89,-46.8049 26.68,-63.2937c17.79,-16.48878 42.97,-24.73319 75.56,-24.73319c29.99,0 55.44,7.27066 76.34,21.81199c21.04,14.4115 31.55,37.5218 31.55,69.3309l-36.41,0c-1.95,-15.3203 -6.11,-27.0702 -12.47,-35.2497c-11.81,-14.9308 -31.87,-22.3962 -60.18,-22.3962c-22.85,0 -39.27,4.8038 -49.27,14.4115c-9.99,9.6076 -14.99,20.7733 -14.99,33.4969c0,14.022 5.84,24.2793 17.52,30.7703c7.66,4.155 25,9.348 52,15.58l40.12,9.153c19.35,4.415 34.28,10.452 44.79,18.112c18.18,13.373 27.27,32.783 27.27,58.23c0,31.68 -11.56,54.336 -34.67,67.968c-22.98,13.632 -49.72,20.449 -80.23,20.449c-35.58,0 -63.43,-9.089 -83.55,-27.265c-20.13,-18.047 -29.99,-42.521 -29.6,-73.421l36.41,0z"/>
  <path id="svg_5" fill="black" d="m1133.79,7.40039l208.58,0l0,35.05501l-170.79,0l0,86.8586l157.94,0l0,33.107l-157.94,0l0,96.986l173.71,0l0,34.081l-211.5,0l0,-286.08761z"/>
  <path id="svg_6" fill="black" d="m963.669,260.38c13.113,0 23.889,-1.363 32.328,-4.089c15.063,-5.064 27.393,-14.801 37.003,-29.213c7.66,-11.555 13.18,-26.356 16.55,-44.403c1.95,-10.776 2.92,-20.773 2.92,-29.991c0,-35.445 -7.07,-62.9694 -21.22,-82.5742c-14.03,-19.6048 -36.681,-29.4072 -67.971,-29.4072l-68.747,0l0,219.6774l69.137,0zm-108.086,-252.97961l115.876,0c39.341,0 69.851,13.95711 91.531,41.87121c19.35,25.1876 29.02,57.4514 29.02,96.7904c0,30.381 -5.71,57.841 -17.14,82.379c-20.12,43.365 -54.72,65.047 -103.801,65.047l-115.486,0l0,-286.08761z"/>
  <path id="svg_7" fill="black" d="m433.537,7.40039l55.503,0l82.185,241.87961l81.6,-241.87961l54.919,0l0,286.08761l-36.807,0l0,-168.848c0,-5.843 0.129,-15.515 0.389,-29.018c0.26,-13.5026 0.39,-27.979 0.39,-43.4292l-81.601,241.2952l-38.365,0l-82.185,-241.2952l0,8.7638c0,7.011 0.13,17.7222 0.39,32.1337c0.389,14.2817 0.584,24.7977 0.584,31.5497l0,168.848l-37.002,0l0,-286.08761z"/>
  <path id="svg_8" fill="black" d="m158.246,7.40039l45.182,0l82.184,137.49361l82.185,-137.49361l45.377,0l-108.087,170.79561l0,115.292l-38.755,0l0,-115.292l-108.086,-170.79561z"/>
  <path id="svg_9" fill="black" d="m0,7.40039l38.7552,0l0,252.00661l144.8938,0l0,34.081l-183.649,0l0,-286.08761z"/>
 </g>
</svg>