<svg width="2263" height="302" viewBox="0 0 2263 302" fill="none" xmlns="http://www.w3.org/2000/svg">
<path d="M2035.73 7.40039H2081.49L2226 239.153V7.40039H2262.81V293.488H2219.38L2072.73 61.9303V293.488H2035.73V7.40039Z" fill="black"/>
<path d="M1860.93 0C1887.8 0 1911.04 5.19333 1930.65 15.58C1959.08 30.5108 1976.48 56.6722 1982.84 94.0641H1944.48C1939.8 73.161 1930.13 57.9705 1915.46 48.4927C1900.79 38.885 1882.29 34.0812 1859.95 34.0812C1833.47 34.0812 1811.14 44.0135 1792.96 63.8779C1774.91 83.7424 1765.89 113.344 1765.89 152.684C1765.89 186.7 1773.35 214.42 1788.29 235.842C1803.22 257.135 1827.56 267.781 1861.32 267.781C1887.15 267.781 1908.51 260.316 1925.39 245.385C1942.4 230.324 1951.1 206.045 1951.49 172.548H1861.9V140.415H1987.51V293.488H1962.59L1953.24 256.68C1940.13 271.092 1928.51 281.089 1918.38 286.672C1901.37 296.279 1879.75 301.083 1853.53 301.083C1819.64 301.083 1790.49 290.112 1766.08 268.17C1739.47 240.646 1726.16 202.864 1726.16 154.826C1726.16 106.918 1739.14 68.8116 1765.11 40.508C1789.78 13.5027 1821.72 0 1860.93 0Z" fill="black"/>
<path d="M1646.98 7.40039H1686.13V293.488H1646.98V7.40039Z" fill="black"/>
<path d="M1409.47 201.177C1410.38 217.406 1414.21 230.584 1420.96 240.711C1433.82 259.667 1456.47 269.145 1488.93 269.145C1503.47 269.145 1516.72 267.067 1528.66 262.913C1551.77 254.863 1563.33 240.452 1563.33 219.678C1563.33 204.098 1558.46 192.998 1548.72 186.376C1538.85 179.884 1523.4 174.237 1502.37 169.433L1463.62 160.669C1438.3 154.956 1420.38 148.66 1409.86 141.778C1391.69 129.834 1382.6 111.982 1382.6 88.2222C1382.6 62.5152 1391.49 41.4173 1409.28 24.9285C1427.07 8.43972 1452.25 0.195312 1484.84 0.195312C1514.83 0.195312 1540.28 7.46597 1561.18 22.0073C1582.22 36.4188 1592.73 59.5291 1592.73 91.3382H1556.32C1554.37 76.0179 1550.21 64.268 1543.85 56.0885C1532.04 41.1577 1511.98 33.6923 1483.67 33.6923C1460.82 33.6923 1444.4 38.4961 1434.4 48.1038C1424.41 57.7114 1419.41 68.8771 1419.41 81.6007C1419.41 95.6227 1425.25 105.88 1436.93 112.371C1444.59 116.526 1461.93 121.719 1488.93 127.951L1529.05 137.104C1548.4 141.519 1563.33 147.556 1573.84 155.216C1592.02 168.589 1601.11 187.999 1601.11 213.446C1601.11 245.126 1589.55 267.782 1566.44 281.414C1543.46 295.046 1516.72 301.863 1486.21 301.863C1450.63 301.863 1422.78 292.774 1402.66 274.598C1382.53 256.551 1372.67 232.077 1373.06 201.177H1409.47Z" fill="black"/>
<path d="M1133.79 7.40039H1342.37V42.4554H1171.58V129.314H1329.52V162.421H1171.58V259.407H1345.29V293.488H1133.79V7.40039Z" fill="black"/>
<path d="M963.669 260.38C976.782 260.38 987.558 259.017 995.997 256.291C1011.06 251.227 1023.39 241.49 1033 227.078C1040.66 215.523 1046.18 200.722 1049.55 182.675C1051.5 171.899 1052.47 161.902 1052.47 152.684C1052.47 117.239 1045.4 89.7146 1031.25 70.1098C1017.22 50.505 994.569 40.7026 963.279 40.7026H894.532V260.38H963.669ZM855.583 7.40039H971.459C1010.8 7.40039 1041.31 21.3575 1062.99 49.2716C1082.34 74.4592 1092.01 106.723 1092.01 146.062C1092.01 176.443 1086.3 203.903 1074.87 228.441C1054.75 271.806 1020.15 293.488 971.069 293.488H855.583V7.40039Z" fill="black"/>
<path d="M433.537 7.40039H489.04L571.225 249.28L652.825 7.40039H707.744V293.488H670.937V124.64C670.937 118.797 671.066 109.125 671.326 95.622C671.586 82.1194 671.716 67.643 671.716 52.1928L590.115 293.488H551.75L469.565 52.1928V60.9566C469.565 67.9676 469.695 78.6788 469.955 93.0903C470.344 107.372 470.539 117.888 470.539 124.64V293.488H433.537V7.40039Z" fill="black"/>
<path d="M158.246 7.40039H203.428L285.612 144.894L367.797 7.40039H413.174L305.087 178.196V293.488H266.332V178.196L158.246 7.40039Z" fill="black"/>
<path d="M0 7.40039H38.7552V259.407H183.649V293.488H0V7.40039Z" fill="black"/>
</svg>
